<?xml version="1.0" encoding="UTF-8" standalone="no"?>
<svg xmlns="http://www.w3.org/2000/svg" version="1.1" height="24px" width="24px" enable-background="new 0 0 24 24" y="0px" x="0px" viewBox="0 0 24 24">
	<path d="m12 2c-5.52 0-10 4.48-10 10s4.48 10 10 10 10-4.48 10-10-4.48-10-10-10zm0 2c4.41 0 8 3.59 8 8 0 1.82-.621 3.49-1.641 4.83-1.43-1.74-4.899-2.33-6.359-2.33s-4.9294.590-6.3594 2.33c-1.02-1.34-1.6406-3.01-1.6406-4.83 0-4.41 3.59-8 8-8zm0 2c-1.94 0-3.5 1.56-3.5 3.5s1.56 3.5 3.5 3.5 3.5-1.56 3.5-3.5-1.56-3.5-3.5-3.5zm0 2c.83 0 1.5.67 1.5 1.5s-.67 1.5-1.5 1.5-1.5-.67-1.5-1.5.67-1.5 1.5-1.5zm0 8.5c1.88 0 4.51.879 4.93 1.779-1.36 1.08-3.07 1.721-4.93 1.721s-3.5697-.641-4.9297-1.721c0.43-0.9 3.0497-1.779 4.9297-1.779z" fill="#ffffff"/>
</svg>
