<?xml version="1.0" encoding="UTF-8" standalone="no"?>
<svg xmlns="http://www.w3.org/2000/svg" enable-background="new 0 0 24 24" height="24px" width="24px" version="1.1" y="0px" x="0px" viewBox="0 0 24 24">
	<path d="m9 5c-1.93 0-3.5 1.57-3.5 3.5s1.57 3.5 3.5 3.5 3.5-1.57 3.5-3.5-1.57-3.5-3.5-3.5zm6 0c-.54 0-1.04.1296-1.5.3496.63 0.89 1 1.9804 1 3.1504s-.37 2.26-1 3.15c.46.220.96.350 1.5.350 1.93 0 3.5-1.57 3.5-3.5s-1.57-3.5-3.5-3.5zm-6 2c.83 0 1.5.67 1.5 1.5s-.67 1.5-1.5 1.5-1.5-.67-1.5-1.5.67-1.5 1.5-1.5zm0 6.75c-2.34 0-7 1.17-7 3.5v1.75h14v-1.75c0-2.33-4.66-3.5-7-3.5zm7.039.061c1.16.840 1.961 1.959 1.961 3.439v1.75h4v-1.75c0-2.02-3.501-3.169-5.961-3.439zm-7.039 1.939c1.79 0 3.82.67 4.66 1.25h-9.3202c0.84-.58 2.8702-1.25 4.6602-1.25z"/>
</svg>
